<svg width="196" height="44" viewBox="0 0 196 44" fill="none" xmlns="http://www.w3.org/2000/svg">
<rect width="81.6667" height="43.5556" fill="black"/>
<rect x="5.44444" y="5.44446" width="5.44444" height="32.6667" fill="white"/>
<rect x="5.44444" y="5.44446" width="32.6667" height="5.44444" fill="white"/>
<rect x="43.5556" y="5.44446" width="5.44444" height="32.6667" fill="white"/>
<rect x="70.7778" y="5.44446" width="5.44444" height="16.3333" fill="white"/>
<rect x="43.5556" y="5.44446" width="32.6667" height="5.44444" fill="white"/>
<rect x="43.5556" y="32.6667" width="32.6667" height="5.44444" fill="white"/>
<rect x="43.5556" y="16.3334" width="32.6667" height="5.44444" fill="white"/>
<rect x="87.1111" y="5.44446" width="5.44444" height="32.6667" fill="black"/>
<rect x="87.1111" y="5.44446" width="32.6667" height="5.44444" fill="black"/>
<rect x="87.1111" y="32.6667" width="32.6667" height="5.44444" fill="black"/>
<rect x="157.889" y="5.44446" width="5.44444" height="32.6667" transform="rotate(90 157.889 5.44446)" fill="black"/>
<rect x="157.889" y="16.3334" width="5.44444" height="32.6667" transform="rotate(90 157.889 16.3334)" fill="black"/>
<rect x="157.889" y="5.44446" width="32.6667" height="5.44444" transform="rotate(90 157.889 5.44446)" fill="black"/>
<rect x="130.667" y="5.44446" width="32.6667" height="5.44444" transform="rotate(90 130.667 5.44446)" fill="black"/>
<rect x="196" y="5.44446" width="5.44444" height="32.6667" transform="rotate(90 196 5.44446)" fill="black"/>
<rect x="196" y="16.3334" width="5.44444" height="32.6667" transform="rotate(90 196 16.3334)" fill="black"/>
<rect x="196" y="5.44446" width="16.3333" height="5.44444" transform="rotate(90 196 5.44446)" fill="black"/>
<rect x="168.778" y="5.44446" width="32.6667" height="5.44444" transform="rotate(90 168.778 5.44446)" fill="black"/>
</svg>
